<svg version="1.1" id="Layer_1" xmlns="http://www.w3.org/2000/svg" xmlns:xlink="http://www.w3.org/1999/xlink" x="0px" y="0px"
	 width="100%" viewBox="0 0 1024 912" enable-background="new 0 0 1024 912" xml:space="preserve">
<path fill="#000000" opacity="1.000000" stroke="none" 
	d="
M215.249207,549.581787 
	C210.469696,525.922363 207.633270,502.519073 207.983261,478.749634 
	C208.215317,462.989807 210.526230,447.557465 214.603668,432.416687 
	C220.272751,411.365692 244.973648,405.189423 260.326385,420.888153 
	C272.221161,433.050995 279.461731,448.006195 285.299530,463.741028 
	C287.260559,469.026611 289.234741,474.307312 291.174652,479.514374 
	C293.041046,479.404449 292.703217,478.085724 292.887634,477.282623 
	C296.055420,463.487030 302.341553,450.976379 309.005280,438.665222 
	C315.531006,426.609070 327.141571,423.642212 339.139862,430.292969 
	C347.144257,434.729889 352.214966,441.652496 355.812622,449.639771 
	C361.070831,461.313721 369.817078,470.300903 378.544952,479.094452 
	C383.656952,484.244934 390.989746,486.816925 398.459045,487.612885 
	C403.805237,488.182556 407.478638,484.979614 407.714478,479.542725 
	C408.055756,471.675568 404.390564,465.348541 398.842865,460.234283 
	C395.865112,457.489227 393.923523,454.821228 395.173828,450.727905 
	C396.395752,446.727539 399.480865,445.774933 403.312592,445.488251 
	C407.950836,445.141296 412.554474,444.279785 417.157410,443.542908 
	C418.626556,443.307709 420.090607,442.875946 421.480591,442.336975 
	C432.356598,438.119873 444.752563,419.993561 444.618622,408.328003 
	C444.530365,400.642426 442.557312,393.305145 437.800934,387.287262 
	C432.276276,380.297394 426.698669,373.220612 419.111908,368.176483 
	C416.698578,366.571899 415.670593,364.216461 415.697296,361.339783 
	C415.721985,358.680756 416.029297,355.963623 415.606323,353.370911 
	C412.725342,335.710815 431.757782,313.979370 452.511383,315.591217 
	C462.466248,316.364319 469.187378,320.622620 473.192841,330.767426 
	C474.903534,335.100067 476.521362,339.471771 478.072876,343.864075 
	C479.237579,347.161407 481.620819,348.511108 484.936737,348.613953 
	C496.813141,348.982361 506.133209,343.840179 512.415771,334.194153 
	C518.154236,325.383392 516.167114,315.885284 511.836609,307.007690 
	C508.796631,300.775696 498.015472,297.011597 491.249023,299.969452 
	C486.219849,302.167908 481.778442,300.911926 477.278046,299.221008 
	C473.661011,297.861969 471.876587,294.763641 471.833252,290.974976 
	C471.791382,287.317535 473.754913,284.686707 477.046600,283.114471 
	C478.246521,282.541321 479.477814,281.969879 480.757050,281.636841 
	C491.900787,278.735626 496.410889,270.803833 497.517639,260.050751 
	C498.461884,250.876266 489.324615,239.899216 479.902954,239.095856 
	C455.603668,237.023865 431.925323,239.838303 408.159729,245.531296 
	C381.978302,251.802979 358.154419,262.543457 335.766388,277.060181 
	C333.251740,278.690735 330.744629,280.413666 328.029572,281.641693 
	C305.528900,291.818848 288.153137,308.589325 271.112091,325.775238 
	C268.665771,328.242310 266.697937,331.186768 264.534698,333.930786 
	C262.520142,336.486237 260.165863,338.553040 256.832672,339.076202 
	C253.343109,339.623962 250.548187,338.367218 248.779572,335.316925 
	C247.011185,332.267090 247.310577,329.310638 249.602722,326.528107 
	C262.368073,311.031708 277.262054,297.730591 292.600800,284.901855 
	C297.464417,280.834167 302.746216,277.294708 308.449615,274.492462 
	C326.253265,265.744965 342.326263,254.001740 360.255249,245.353271 
	C378.211975,236.691391 397.342987,232.632538 416.345490,227.773315 
	C440.744507,221.534134 465.443573,222.050797 490.279968,224.151382 
	C502.705444,225.202301 515.082886,225.737717 527.393555,228.449265 
	C546.930725,232.752457 565.492126,239.418289 582.734314,249.346451 
	C600.191895,259.398651 616.927124,270.919250 631.901367,284.233276 
	C646.633423,297.332001 661.703369,310.467529 673.357788,326.717072 
	C687.429810,346.337372 699.020508,367.186188 704.665771,390.919556 
	C705.337524,393.743744 706.445129,396.137238 708.817139,398.069336 
	C711.570740,400.312256 712.177673,403.562714 710.659912,406.683197 
	C709.520264,409.026367 709.662903,411.105713 710.304199,413.395660 
	C717.019165,437.375031 716.504089,461.875183 714.908203,486.326538 
	C712.658569,520.793091 703.936707,553.925110 692.108765,586.222717 
	C686.489746,601.566101 679.153625,616.393494 670.210022,629.928467 
	C656.391296,650.841370 639.050964,668.773987 617.828003,682.691711 
	C605.161560,690.998169 593.306519,700.532349 579.962708,707.828430 
	C577.479309,709.186340 575.134033,710.907959 572.509460,711.879456 
	C546.302917,721.579590 520.426392,733.188049 492.083069,734.445923 
	C468.037567,735.513184 443.977997,735.209961 420.007782,730.262695 
	C399.352600,725.999573 379.714142,718.892578 359.596924,713.126404 
	C335.608215,706.250427 316.648743,692.389038 299.160370,675.724670 
	C292.997833,669.852478 285.225311,665.975830 279.744537,659.316345 
	C278.163788,657.395630 276.026459,658.545532 274.173706,659.248474 
	C264.429077,662.945496 254.374954,665.388367 243.937180,664.919312 
	C236.327087,664.577209 228.588913,664.879822 221.151062,662.596558 
	C201.145172,656.455017 195.204102,642.047791 197.241928,623.725037 
	C197.825424,618.478760 199.644272,613.361511 201.007599,608.214417 
	C201.563583,606.115479 202.595825,604.200745 204.000229,602.497070 
	C207.419724,598.348999 211.615036,597.455811 215.375290,600.121887 
	C218.882996,602.608887 219.271698,606.610962 217.040298,611.277405 
	C214.007889,617.618958 211.957169,624.306885 212.361496,631.450195 
	C212.894684,640.869385 216.927902,646.089233 226.204559,647.702454 
	C237.725861,649.706055 249.397110,649.902710 260.923218,647.286499 
	C263.132782,646.785034 265.494873,646.237915 267.308105,644.150269 
	C265.677307,639.922546 262.590759,636.646851 259.542328,633.426575 
	C244.777283,617.829224 233.205521,599.912598 222.495712,581.482727 
	C216.962189,571.960510 217.706436,560.520203 215.249207,549.581787 
M417.893066,580.331421 
	C428.406342,574.929016 439.161224,570.005798 449.341675,563.940186 
	C452.887085,561.827881 456.804291,560.059265 460.782959,559.014099 
	C468.436676,557.003662 475.690125,554.039368 482.439575,550.110657 
	C505.036346,536.957581 528.999634,526.232971 550.844971,511.772217 
	C565.288574,502.211121 581.261047,495.009399 594.721008,483.999359 
	C608.129028,473.031708 622.941040,464.010101 636.038208,452.551880 
	C653.411743,437.352417 673.570740,425.437744 688.905945,407.743713 
	C691.153931,405.149994 691.827698,403.203156 691.132446,399.855988 
	C687.343262,381.614075 679.161499,365.253845 669.868652,349.385193 
	C663.961731,339.298401 657.104065,329.862946 648.666321,321.671417 
	C641.493896,314.708344 634.223694,307.840210 627.221924,300.709015 
	C621.346680,294.725281 615.154907,289.182678 607.762268,285.183228 
	C597.148071,279.440948 588.781677,270.577576 578.359375,264.512238 
	C564.858215,256.655090 550.358032,251.225708 535.661255,246.422943 
	C527.248169,243.673615 518.251587,242.709900 507.764679,240.587494 
	C516.250061,256.437164 513.033691,270.423920 505.976990,284.070282 
	C509.653625,286.067200 513.016418,287.872314 516.358398,289.715149 
	C519.329346,291.353455 521.740356,293.629272 523.694336,296.387543 
	C533.822693,310.684784 533.851501,331.997803 523.769531,345.217865 
	C511.532166,361.264191 489.758575,368.369202 472.578278,361.961090 
	C469.910187,360.965912 468.265442,359.125854 466.955322,356.631775 
	C463.609009,350.261536 461.192932,343.535797 458.858307,336.764740 
	C457.894135,333.968475 456.544739,331.709381 453.097717,331.350433 
	C444.375214,330.442108 433.487305,337.361633 431.650055,345.831757 
	C430.568787,350.816620 430.825653,355.612610 434.717407,360.266785 
	C441.199371,368.018555 449.381165,374.378235 453.887939,383.816986 
	C461.090607,398.901825 463.528168,414.184143 454.746277,429.238220 
	C446.746460,442.951691 436.918457,455.089844 420.194244,458.926300 
	C419.625763,459.056671 419.153717,459.607483 418.488525,460.064026 
	C419.834412,463.472015 421.430054,466.613190 422.332062,469.942291 
	C428.235260,491.730194 411.359863,507.153839 393.913208,502.549622 
	C379.453217,498.733643 366.525116,493.262085 357.392853,479.740692 
	C351.256287,470.654816 344.759827,461.853882 339.590729,452.142395 
	C337.672974,448.539429 335.014984,445.466644 331.247040,443.795471 
	C328.329010,442.501221 325.102936,441.494720 323.047913,445.429871 
	C316.645691,457.689240 309.824158,469.842834 307.578094,483.703033 
	C306.243896,491.936340 304.122589,500.148254 307.087921,508.736755 
	C308.788513,513.662109 304.422791,519.744812 299.862457,520.839233 
	C292.949982,522.498108 288.353729,520.041809 286.214630,513.612244 
	C283.954437,506.818634 281.689056,500.026154 279.344025,493.261536 
	C274.218109,478.475189 269.418976,463.557281 262.040253,449.662903 
	C258.420319,442.846375 254.071777,436.525116 248.484451,431.204620 
	C242.113678,425.138092 231.608047,427.574432 229.705475,435.824585 
	C226.869385,448.122894 224.243347,460.421753 223.768387,473.222626 
	C222.747513,500.737915 226.441574,527.665955 231.771469,554.504700 
	C233.643082,563.929321 234.686859,573.382751 240.178726,581.868286 
	C252.787827,601.350464 267.531891,619.158081 282.033051,637.179260 
	C283.820648,639.400879 285.528351,639.081787 287.710449,638.239014 
	C305.881592,631.221130 324.348267,624.886475 342.187286,617.110229 
	C367.678528,605.998474 391.847076,592.063965 417.893066,580.331421 
M395.404175,607.929260 
	C363.857483,626.355042 329.536713,638.617920 295.574432,652.475037 
	C305.620483,658.801147 312.472870,668.041138 321.308411,675.050903 
	C335.122040,686.010010 350.301361,693.713623 367.201385,699.474304 
	C389.193939,706.970886 411.396179,713.164368 434.125916,717.390442 
	C450.229004,720.384460 466.710785,718.387878 483.013031,718.951111 
	C500.126617,719.542297 516.346313,715.341431 532.358215,710.033203 
	C541.049316,707.151978 549.608337,703.874695 558.274658,700.915771 
	C562.394836,699.509094 566.263184,697.670898 570.092285,695.605713 
	C585.555176,687.266479 599.241638,676.302551 613.710571,666.490967 
	C632.678894,653.628235 647.361267,636.702454 659.354675,617.583008 
	C675.623840,591.647400 684.894958,562.762573 692.195923,533.229065 
	C699.697205,502.885620 701.104187,472.015472 699.504272,440.964905 
	C699.201477,435.088043 698.916077,428.928223 695.923889,422.910309 
	C692.827942,427.269714 689.253174,430.247772 685.596863,433.142975 
	C675.283875,441.309113 665.219482,449.815765 654.595642,457.554749 
	C645.148987,464.436218 637.076904,472.987396 627.383362,479.468353 
	C618.926453,485.122498 611.062439,491.607941 602.675110,497.260803 
	C578.666687,513.441833 554.226746,528.994263 528.654419,542.660156 
	C523.956482,545.170776 519.217163,547.607117 514.568237,550.205383 
	C501.628632,557.437256 488.842529,564.965759 475.118317,570.676086 
	C468.686676,573.352173 461.779083,574.619995 455.599060,578.178833 
	C436.389893,589.240417 416.334045,598.638550 395.404175,607.929260 
z"/>
<path fill="#000000" opacity="1.000000" stroke="none" 
	d="
M262.953979,836.083984 
	C248.593506,825.447144 232.721252,817.782715 218.724472,807.243408 
	C208.882599,799.832642 198.594833,792.913757 189.439270,784.731201 
	C184.351669,780.184204 180.926559,773.530579 175.456543,769.271423 
	C158.949280,756.418518 146.716293,739.637146 133.942383,723.575684 
	C122.611214,709.328308 112.970909,693.614197 105.495186,676.780029 
	C99.822990,664.007141 93.471573,651.557129 87.749962,638.787048 
	C75.279434,610.954041 66.826263,582.055115 60.504963,552.336243 
	C54.843315,525.718628 50.244499,499.036102 51.806137,471.703278 
	C52.564716,458.426056 53.998734,445.187592 55.112576,431.930389 
	C55.891346,422.661316 56.613453,413.387421 57.417885,404.120636 
	C58.932255,386.675720 62.427670,369.611786 66.799294,352.663971 
	C73.202606,327.839813 80.073448,303.198944 90.583542,279.726044 
	C93.596184,272.997711 97.822662,267.003662 101.783173,260.837219 
	C120.371880,231.894928 141.933624,205.393295 164.910904,179.767654 
	C180.241959,162.669540 197.833557,148.720032 215.858948,135.086716 
	C245.186157,112.905396 274.477936,90.589111 308.492340,75.643623 
	C326.793671,67.602242 344.979980,59.251888 364.772675,55.454346 
	C389.932434,50.627048 415.062866,45.582592 440.343140,41.476170 
	C452.150513,39.558228 464.295532,40.733734 476.270905,41.215004 
	C482.078278,41.448395 485.573639,45.833744 484.877197,50.720787 
	C484.139008,55.901039 480.191803,57.980686 474.119812,57.424515 
	C458.163605,55.962982 442.312317,55.946323 426.443542,59.418766 
	C407.436035,63.578033 388.301544,67.190140 369.139832,70.652672 
	C345.456696,74.932228 324.322479,86.117279 302.594574,95.867577 
	C281.471680,105.346390 264.544617,120.918404 245.060455,132.667740 
	C231.692245,140.729050 220.924835,152.041046 208.158737,160.823792 
	C187.864655,174.785553 173.097092,194.341385 156.921463,212.413101 
	C140.564056,230.687897 126.725410,250.892212 113.431190,271.467468 
	C104.045235,285.993927 97.014000,301.553680 93.014999,318.379883 
	C90.659836,328.289520 85.903000,337.378632 83.806137,347.377533 
	C79.848259,366.250641 74.110352,384.810822 73.021233,404.185547 
	C72.275375,417.453705 70.723236,430.619812 69.406448,443.822784 
	C67.869736,459.230865 66.705482,474.692352 67.117859,490.178986 
	C67.583862,507.679901 70.517532,524.920349 74.097893,542.019531 
	C76.994560,555.853638 80.023308,569.675293 83.559372,583.356201 
	C87.650772,599.185669 94.720818,613.969604 100.491379,629.213501 
	C106.640388,645.457214 115.202423,660.531006 122.184433,676.364441 
	C126.108727,685.263794 132.621628,692.985840 137.401505,701.554443 
	C141.759277,709.366394 147.258224,716.160706 153.439636,722.498230 
	C156.122284,725.248657 158.565384,728.167542 160.703354,731.377014 
	C164.965225,737.774780 169.998596,743.392883 175.939560,748.425171 
	C185.707382,756.699097 194.101944,766.454346 203.199280,775.453857 
	C211.380096,783.546692 221.034058,789.916809 230.508560,796.425049 
	C248.899918,809.058594 268.414429,819.986755 286.304413,833.396973 
	C295.332245,840.164124 305.865631,844.159180 316.408569,847.802307 
	C333.093903,853.568054 348.994202,861.373535 365.956787,866.409851 
	C389.325806,873.348328 413.218292,877.485657 437.331421,880.741943 
	C457.679565,883.489685 478.105713,885.110168 498.585999,884.491333 
	C540.675781,883.219604 581.715332,876.588745 620.183472,858.260010 
	C623.485962,856.686462 626.865784,855.198425 630.342590,854.086487 
	C634.913147,852.624756 638.996155,854.722534 640.497375,858.880676 
	C641.934998,862.862854 640.245300,866.535278 635.844055,868.597290 
	C614.987854,878.369202 593.549133,886.631958 571.009155,891.512024 
	C534.180664,899.485474 496.884460,902.678284 459.327148,899.021912 
	C424.868408,895.667114 390.326691,891.438232 357.529633,879.883667 
	C330.910583,870.505798 303.689545,862.153259 279.265961,847.371094 
	C273.721161,844.015076 268.570618,840.007568 262.953979,836.083984 
z"/>
<path fill="#000000" opacity="1.000000" stroke="none" 
	d="
M764.833374,146.060593 
	C773.487793,133.609329 785.633545,135.401306 798.165344,143.209427 
	C807.479675,149.012848 810.338379,164.346313 804.616821,174.173798 
	C802.296814,178.158722 798.248718,179.685760 794.455261,178.006989 
	C790.720642,176.354248 788.796326,172.187668 790.111145,167.965210 
	C790.802551,165.744598 791.822815,163.670166 791.626282,161.232590 
	C791.259399,156.683273 784.625610,151.853592 780.341614,153.312088 
	C777.025574,154.441040 776.969543,157.002960 778.133057,159.835297 
	C780.723206,166.140854 783.458191,172.392822 785.844727,178.774872 
	C789.746155,189.208359 789.414001,196.081772 777.664490,201.373245 
	C767.463501,205.967346 755.084473,204.553909 749.417786,193.596832 
	C745.168518,185.380646 744.228821,176.811829 744.951904,167.934189 
	C745.295959,163.709244 747.602844,160.082642 750.508728,156.975845 
	C753.541138,153.733841 757.233704,153.835205 761.020386,155.504013 
	C762.326721,152.189224 763.474060,149.277924 764.833374,146.060593 
M765.162720,187.671295 
	C767.714294,187.659622 771.897461,189.215820 771.118713,184.637787 
	C769.997925,178.049057 766.515625,172.178314 763.487305,165.823730 
	C758.831970,171.778473 759.554504,181.910248 765.162720,187.671295 
z"/>
<path fill="#000000" opacity="1.000000" stroke="none" 
	d="
M781.893677,359.782410 
	C777.872131,365.763672 773.272583,370.787598 768.128540,375.261688 
	C766.175171,376.960663 765.297485,378.692261 765.308594,381.239014 
	C765.332458,386.728424 765.234497,392.222931 764.268250,397.660126 
	C763.178650,403.791718 760.344116,406.978363 755.759766,407.121399 
	C751.357117,407.258789 748.427979,404.487854 746.788330,398.649261 
	C746.344360,397.068329 745.874329,395.494690 745.353760,393.702789 
	C740.940918,394.073273 737.863770,395.098663 738.205811,400.427673 
	C738.445068,404.155365 736.195740,406.720673 732.644470,407.825989 
	C728.975342,408.967957 726.057495,407.459839 723.960205,404.520996 
	C720.697327,399.948944 718.854370,394.513550 714.829712,390.324890 
	C712.891235,388.307373 713.451477,385.239288 715.104187,382.850586 
	C717.220276,379.792023 720.336670,378.730743 723.863037,379.427063 
	C728.424133,380.327667 731.944214,379.165527 734.645752,375.073242 
	C732.603149,372.301758 729.783508,370.859985 727.157166,369.169739 
	C722.602844,366.238708 721.186829,362.608246 723.032959,358.729889 
	C724.987366,354.623932 729.091492,353.312683 734.013855,355.232513 
	C737.730530,356.682037 741.652527,357.768311 745.102051,359.697571 
	C749.244995,362.014587 752.567871,361.129120 756.161255,358.719666 
	C760.581665,355.755615 765.122620,352.954254 769.740295,350.307220 
	C772.831177,348.535339 776.149109,348.410217 779.160278,350.636566 
	C782.153687,352.849762 783.195923,355.819214 781.893677,359.782410 
z"/>
<path fill="#000000" opacity="1.000000" stroke="none" 
	d="
M736.712402,95.944008 
	C751.736023,100.239449 758.098267,110.261894 755.820435,125.516907 
	C755.017273,130.895187 751.387512,133.968155 746.748779,133.196762 
	C742.235168,132.446167 739.084167,127.578178 739.910522,122.632599 
	C741.286438,114.398598 738.438477,111.152588 729.283020,111.116669 
	C728.966736,116.192429 730.958252,120.398743 734.016113,124.173729 
	C736.576172,127.334106 738.577148,130.724594 739.285400,134.758972 
	C741.090942,145.043411 738.577087,150.393158 729.642456,155.440826 
	C721.354492,160.123154 713.987854,159.432709 706.793579,152.701324 
	C698.338989,144.790710 694.705261,134.955338 696.710632,123.405937 
	C697.283020,120.109108 698.821533,117.119926 702.009460,115.314163 
	C705.256775,113.474762 708.434998,113.321106 711.235779,115.898651 
	C713.885254,118.337013 715.065613,121.492401 713.228821,124.888832 
	C710.196960,130.495224 712.299500,135.198227 715.562622,139.651276 
	C717.173035,141.848969 719.353027,143.860275 722.268494,141.563797 
	C725.018311,139.397842 724.190308,136.680542 722.341858,134.532486 
	C718.785034,130.399048 716.495239,125.701866 714.929016,120.541054 
	C709.277710,101.918907 717.310669,92.615028 736.712402,95.944008 
z"/>
<path fill="#000000" opacity="1.000000" stroke="none" 
	d="
M860.773560,585.062988 
	C862.015259,582.160889 864.123901,581.124512 866.679199,580.423340 
	C874.165955,578.368958 880.828186,574.160889 888.374084,571.605408 
	C884.854858,570.808655 881.316406,570.087219 877.820984,569.196960 
	C872.877319,567.937988 870.452576,564.058838 871.609680,559.476318 
	C872.675598,555.254700 876.480103,553.113831 881.373657,554.143188 
	C895.082214,557.026794 908.463013,561.064453 921.611572,565.865356 
	C927.002502,567.833740 928.949341,570.742615 928.131104,575.024475 
	C927.255127,579.608826 924.322510,581.078979 918.375305,581.399902 
	C907.638367,581.979309 897.919739,586.768127 887.569641,589.615173 
	C895.761047,592.501587 904.052246,594.736755 911.971008,598.028015 
	C917.725586,600.419800 920.034851,604.716858 918.140198,609.293640 
	C916.302063,613.733826 911.739502,615.787231 907.467285,613.561951 
	C896.091187,607.636536 883.671448,605.147400 871.392761,602.171875 
	C862.007507,599.897522 858.862183,595.077637 860.773560,585.062988 
z"/>
<path fill="#000000" opacity="1.000000" stroke="none" 
	d="
M861.547119,692.460205 
	C863.787842,693.659485 865.676575,694.552856 867.908569,694.864868 
	C874.850647,695.835266 877.854614,700.972107 875.229736,707.504578 
	C871.870667,715.864197 867.904419,723.909119 861.889648,730.772522 
	C860.801819,732.013855 859.861267,733.402954 858.982544,734.805176 
	C856.179016,739.279297 851.436951,740.736755 847.596558,738.239136 
	C843.593689,735.635925 842.661743,729.531067 845.809387,725.419739 
	C847.726990,722.915039 849.963501,720.656921 851.982239,718.226135 
	C852.935791,717.077942 853.744080,715.803894 854.566772,714.553040 
	C858.668884,708.315613 858.352112,707.503601 850.494263,705.025513 
	C848.122314,710.558044 846.144165,716.385559 842.227173,721.219849 
	C838.660950,725.621277 833.837646,726.980652 830.167419,724.251709 
	C826.000732,721.153809 825.737244,716.393066 829.807495,711.634216 
	C832.718811,708.230469 834.117371,704.186523 835.572998,700.119080 
	C836.167603,698.457642 836.440674,696.983704 834.337158,695.958069 
	C831.958130,694.797913 831.011780,696.192627 830.030762,697.880066 
	C828.099243,701.202698 826.585754,704.694702 825.420532,708.363159 
	C823.802368,713.457764 819.529663,716.182190 815.330750,714.951965 
	C810.792358,713.622375 808.919189,709.123779 810.622070,703.545166 
	C812.085815,698.750061 814.096680,694.186829 816.693237,689.898560 
	C818.265686,687.301636 819.291626,684.597107 819.700500,681.535034 
	C820.461731,675.833618 825.950378,673.046692 830.834656,676.105835 
	C840.591553,682.216553 851.108765,686.847900 861.547119,692.460205 
z"/>
<path fill="#000000" opacity="1.000000" stroke="none" 
	d="
M900.235657,447.648560 
	C900.863464,446.970428 901.282166,446.518433 902.170044,445.560059 
	C896.702881,445.168640 892.048035,446.406647 887.337158,446.781006 
	C884.853638,446.978333 882.366211,447.357330 879.886047,447.316925 
	C875.049866,447.238098 872.094055,444.546204 871.806641,440.272705 
	C871.525085,436.087830 874.231201,432.689453 878.886169,432.089905 
	C888.454773,430.857452 898.047058,429.786041 907.648376,428.839020 
	C913.109009,428.300476 918.608398,427.852081 924.087219,427.885132 
	C929.950012,427.920471 933.322021,431.238586 933.444214,436.096741 
	C933.525208,439.317566 932.151733,441.680115 929.281616,442.861328 
	C921.528442,446.052185 917.638794,453.378143 911.535217,458.316437 
	C911.657166,458.751129 911.779053,459.185852 911.901001,459.620575 
	C918.488708,459.620575 925.076355,459.626648 931.664062,459.617493 
	C934.206299,459.613953 936.747742,459.734985 938.590759,461.779846 
	C940.573364,463.979614 941.731323,466.452393 940.614807,469.537262 
	C939.311035,473.139954 936.505859,474.855164 932.979004,475.014069 
	C926.992859,475.283783 920.986572,475.067902 914.991821,475.197418 
	C906.714600,475.376282 898.439148,474.713959 890.339661,477.844421 
	C885.919861,479.552673 882.887817,476.309387 881.049438,472.288666 
	C879.188904,468.219299 879.745911,464.232758 883.653259,462.287445 
	C890.492371,458.882477 894.955200,453.104340 900.235657,447.648560 
z"/>
<path fill="#000000" opacity="1.000000" stroke="none" 
	d="
M793.305359,203.294083 
	C800.917419,197.071075 808.125305,190.902786 815.657166,185.159378 
	C822.226685,180.149826 824.934692,180.642410 831.633850,185.458633 
	C842.488586,193.262482 847.918213,203.411926 847.225098,216.981796 
	C846.879211,223.753845 845.485413,229.534683 838.943237,232.781113 
	C831.665588,236.392502 824.231262,237.039505 817.024963,232.793320 
	C812.069824,229.873581 808.485901,225.319519 805.352661,220.640839 
	C802.913696,216.998932 800.671143,217.043427 797.720703,219.504303 
	C796.192810,220.778687 794.705750,222.103256 793.225647,223.433441 
	C790.121826,226.222839 786.684875,226.949982 783.285828,224.306274 
	C779.822449,221.612564 779.208740,218.032318 781.224854,214.055954 
	C782.393860,211.750427 784.277588,210.153534 786.296326,208.654129 
	C788.562439,206.970932 790.794861,205.242233 793.305359,203.294083 
M826.122253,219.756165 
	C828.143860,219.909912 830.544556,220.268845 830.838257,217.490463 
	C831.419983,211.985580 831.579895,206.561951 827.236328,202.026855 
	C824.629639,199.305145 822.493286,199.022598 819.606140,201.486786 
	C816.844543,203.843903 813.805603,205.857285 816.669739,210.031387 
	C819.127197,213.612915 821.909912,216.901138 826.122253,219.756165 
z"/>
<path fill="#000000" opacity="1.000000" stroke="none" 
	d="
M898.100220,534.234497 
	C891.721741,535.792847 885.745544,537.235352 879.775818,538.703735 
	C875.171021,539.836304 871.153870,537.697998 869.961609,533.445984 
	C868.764526,529.176331 870.902527,524.851929 875.022400,523.301758 
	C875.790710,523.012634 876.620850,522.859131 877.436035,522.727295 
	C887.399841,521.116455 888.941833,518.958984 887.819824,508.895142 
	C887.540161,506.386322 886.059265,505.485321 884.089722,504.841980 
	C881.867126,504.116058 879.664917,503.401520 877.916382,501.728638 
	C874.926270,498.867798 873.830261,495.608459 876.156616,491.894440 
	C878.398315,488.315552 881.605896,487.401947 885.652344,488.758759 
	C897.401794,492.698395 908.283752,498.393494 918.827087,504.814545 
	C921.953918,506.718872 925.179932,508.459625 928.330444,510.326019 
	C932.536865,512.817993 935.414246,518.844116 934.407715,522.938232 
	C933.345276,527.260132 929.732422,528.975647 923.469604,529.419495 
	C915.002991,530.019592 906.786194,532.329590 898.100220,534.234497 
z"/>
<path fill="#000000" opacity="1.000000" stroke="none" 
	d="
M879.338623,655.731567 
	C886.388184,655.664001 888.474182,652.945129 886.395630,646.689575 
	C884.745300,641.722534 881.394165,637.967468 876.570190,635.999512 
	C872.833923,634.475342 868.565918,633.665100 865.263672,636.778809 
	C861.308228,640.508423 859.559265,645.388916 860.897400,650.837524 
	C862.330261,656.672058 860.786804,660.733032 856.195679,662.043152 
	C851.849548,663.283386 847.055054,660.548157 845.741516,655.114990 
	C843.280701,644.936768 845.934143,635.736633 852.490234,627.651733 
	C858.670776,620.029968 866.715454,617.661011 876.150879,619.509094 
	C892.692932,622.749207 905.680237,640.890442 902.383667,655.878845 
	C899.172485,670.479370 883.924683,674.059448 872.726135,669.974609 
	C868.942383,668.594421 867.131104,665.241821 868.116211,661.068542 
	C869.136230,656.746826 872.879089,654.985779 879.338623,655.731567 
z"/>
<path fill="#000000" opacity="1.000000" stroke="none" 
	d="
M896.207275,349.387329 
	C892.585571,349.742004 893.278625,351.692383 894.018616,353.735657 
	C895.093750,356.704865 896.382568,359.635071 897.074097,362.696259 
	C898.232788,367.825928 895.538391,372.158997 891.019287,373.083313 
	C886.485718,374.010620 882.711304,371.003265 881.706726,365.651794 
	C881.584351,364.999878 881.587769,364.318146 881.413086,363.683167 
	C878.820557,354.256256 878.149109,353.827484 868.644470,355.267426 
	C865.359070,355.765167 862.069519,356.242645 858.772949,356.658813 
	C854.272766,357.226959 850.591919,354.766815 849.799500,350.734772 
	C848.958191,346.454102 851.049438,342.453247 855.670349,341.793732 
	C869.192505,339.863831 882.153503,335.223663 895.758179,333.805603 
	C896.254761,333.753815 896.757080,333.751617 897.251770,333.688232 
	C909.617126,332.103668 909.576843,332.120087 914.588074,343.734650 
	C917.624817,350.772858 917.739807,358.618408 921.004578,365.656494 
	C922.445679,368.763184 920.429077,371.885590 917.308105,373.534607 
	C914.247375,375.151794 911.146118,375.052826 908.590332,372.423737 
	C904.840454,368.566376 903.418640,363.762451 902.455200,358.534668 
	C901.799438,354.976410 903.172729,349.392609 896.207275,349.387329 
z"/>
<path fill="#000000" opacity="1.000000" stroke="none" 
	d="
M829.940613,293.815186 
	C828.931396,290.414642 828.111511,287.363190 827.219177,284.333099 
	C826.060120,280.396942 823.978638,277.225006 820.512634,274.749420 
	C814.098938,270.168518 814.465027,264.008301 821.252075,260.093994 
	C834.510071,252.447723 848.789307,246.753250 861.923950,238.845337 
	C865.472595,236.708786 869.213013,237.295410 871.732239,240.710602 
	C874.321350,244.220490 873.981689,247.907715 870.807678,251.085709 
	C866.950317,254.948044 861.742432,256.564270 857.099731,259.092957 
	C850.721436,262.566986 844.157532,265.700226 837.319336,269.158447 
	C840.546570,275.196228 842.772461,281.068176 843.996399,287.271057 
	C844.801392,291.350403 844.241211,295.037537 840.049255,297.019348 
	C836.014832,298.926758 832.616516,297.915833 829.940613,293.815186 
z"/>
<path fill="#000000" opacity="1.000000" stroke="none" 
	d="
M879.113159,397.840729 
	C892.267883,395.563629 904.917419,392.738770 917.867371,391.887299 
	C919.521973,391.778534 921.195801,391.702393 922.845154,391.823303 
	C927.712891,392.180084 930.355286,394.819946 930.487732,399.304474 
	C930.618896,403.744141 928.037537,406.836700 923.227844,407.104706 
	C907.758362,407.966614 892.642029,410.948761 877.558044,414.223785 
	C873.041687,415.204376 869.229309,413.100952 868.007202,409.164734 
	C866.716858,405.009003 868.839600,401.079651 873.428711,399.376007 
	C875.132568,398.743439 876.941711,398.394592 879.113159,397.840729 
z"/>
<path fill="#000000" opacity="1.000000" stroke="none" 
	d="
M433.156738,534.722168 
	C427.237457,526.100769 427.415527,517.834473 433.679321,509.988068 
	C445.565674,495.098480 461.214600,488.957062 479.963104,491.538940 
	C486.293854,492.410736 492.829559,493.220703 498.654449,496.531799 
	C506.687714,501.098267 510.370514,507.944122 510.275665,517.077271 
	C510.183594,525.945862 505.359711,531.093933 497.516815,534.245544 
	C482.814148,540.153687 467.476135,542.818298 451.739990,543.172546 
	C444.523682,543.335022 437.827271,541.489380 433.156738,534.722168 
M454.895355,511.311401 
	C451.336029,513.278198 448.309967,515.878052 446.102478,519.288391 
	C443.243927,523.704590 444.964966,527.489502 450.244629,527.529724 
	C464.346375,527.637268 478.076233,525.179199 491.212982,519.994995 
	C495.529968,518.291382 495.919678,513.892456 492.295959,510.939331 
	C489.890686,508.979218 487.038086,507.930328 483.920746,508.507477 
	C481.909424,508.879913 479.987915,508.573883 478.021545,508.571411 
	C470.465576,508.561951 462.672180,506.783936 454.895355,511.311401 
z"/>
<path fill="#000000" opacity="1.000000" stroke="none" 
	d="
M425.748688,537.749023 
	C427.052277,553.859131 417.768494,562.837036 401.958405,562.544006 
	C383.516266,562.202209 370.580322,553.137024 360.531891,538.660583 
	C358.314850,535.466614 356.823181,531.928589 356.166473,528.126282 
	C355.090271,521.895020 355.960144,515.956299 361.069519,511.730286 
	C366.951385,506.865295 373.203705,502.851990 381.524902,506.480530 
	C393.813751,511.839233 407.206635,515.070862 416.785858,525.470947 
	C420.156250,529.130249 424.098602,532.339600 425.748688,537.749023 
M409.690186,543.338440 
	C409.949005,541.952698 409.734955,540.687805 408.747528,539.616577 
	C402.895660,533.268311 396.219727,528.171814 387.772827,525.738892 
	C386.774933,525.451477 385.708679,525.179260 384.894989,525.848450 
	C380.936676,529.103760 376.703979,528.647888 372.186676,526.442688 
	C375.883789,539.046143 394.005920,549.648071 406.228729,546.835022 
	C407.862976,546.458923 408.876038,545.553467 409.690186,543.338440 
z"/>
<path fill="#000000" opacity="1.000000" stroke="none" 
	d="
M632.321472,591.090332 
	C631.594543,608.842529 628.046326,625.598328 621.736206,641.608276 
	C616.856201,653.989868 605.848145,658.551880 593.579285,653.488892 
	C583.343811,649.265137 572.513855,645.890991 564.376404,637.823547 
	C562.624634,637.807739 562.071350,639.202637 561.289124,640.195374 
	C551.858154,652.165100 539.521484,658.478943 524.331055,659.249939 
	C513.825684,659.783203 503.623993,659.680420 493.519623,655.229736 
	C476.879456,647.900208 469.944794,635.891174 473.012543,617.773804 
	C474.287201,610.245911 477.307007,603.860413 482.859863,598.631714 
	C489.039307,592.812927 493.852570,585.658752 500.695190,580.474243 
	C506.208771,576.296814 511.933929,572.654663 519.107239,572.278259 
	C521.848816,572.134338 523.026367,570.581726 524.024597,568.156860 
	C528.411987,557.499084 543.624512,548.719360 554.931396,550.101379 
	C557.134705,550.370667 559.059937,551.161682 560.726196,552.732300 
	C565.622192,557.347290 571.562805,558.943481 578.177429,558.707520 
	C582.057434,558.569031 584.342773,556.805115 585.332397,553.047424 
	C586.270447,549.485413 586.784119,545.886536 587.078918,542.223816 
	C587.389038,538.370850 589.391663,535.624451 593.162659,534.520569 
	C596.623047,533.507629 599.369324,534.876343 601.428101,537.676575 
	C602.369324,538.956726 603.659607,539.596619 605.039978,540.223145 
	C620.356445,547.174500 628.532104,559.221375 630.374268,575.785522 
	C630.925110,580.738708 632.381836,585.574341 632.321472,591.090332 
M594.677734,568.163208 
	C591.786194,571.147095 588.218384,572.681152 584.159607,573.427063 
	C574.633484,575.177734 565.728333,573.678467 557.063660,569.337341 
	C546.608948,564.099243 538.921814,568.476074 537.978760,579.839478 
	C537.298340,588.037903 532.970032,591.565125 525.313904,589.098022 
	C518.973328,587.054810 514.140503,588.985718 509.849243,593.080688 
	C504.798340,597.900513 500.344177,603.357361 495.190735,608.054810 
	C489.489990,613.251038 487.914764,619.600403 488.020264,626.905457 
	C488.107788,632.965088 491.026947,636.752441 496.233246,639.438110 
	C504.055878,643.473328 512.285156,644.016785 520.926636,643.859680 
	C534.879822,643.605957 545.041016,637.465454 552.382263,625.965210 
	C554.353516,622.877197 556.297729,619.730103 559.147461,617.361694 
	C564.611816,612.820312 571.187195,614.728760 573.276917,621.491821 
	C574.632141,625.877686 577.156067,629.135498 581.349365,631.073730 
	C586.333435,633.377319 591.289368,635.742126 596.284912,638.020203 
	C603.419250,641.273621 606.313049,640.337097 608.627197,632.703247 
	C614.481506,613.390991 619.673462,593.899658 614.563782,573.484985 
	C612.654236,565.855774 608.685181,559.604004 601.143188,555.683594 
	C599.190002,560.068726 598.152588,564.356018 594.677734,568.163208 
z"/>
</svg>